<svg xmlns="http://www.w3.org/2000/svg" viewBox="0 0 800 600" fill="none">
  <rect width="800" height="600" fill="#f8f9fa"/>
  <!-- Sidebar -->
  <rect x="0" y="0" width="180" height="600" fill="#fff"/>
  <rect x="20" y="20" width="140" height="28" rx="6" fill="#db2777" opacity="0.15"/>
  <rect x="20" y="70" width="140" height="10" rx="4" fill="#1a1a2e" opacity="0.08"/>
  <rect x="20" y="95" width="140" height="10" rx="4" fill="#1a1a2e" opacity="0.08"/>
  <rect x="20" y="120" width="140" height="10" rx="4" fill="#1a1a2e" opacity="0.08"/>
  <rect x="20" y="145" width="140" height="10" rx="4" fill="#db2777" opacity="0.2"/>
  <rect x="20" y="170" width="140" height="10" rx="4" fill="#1a1a2e" opacity="0.08"/>
  <!-- Top bar -->
  <rect x="180" y="0" width="620" height="60" fill="#fff" stroke="#e5e7eb" stroke-width="1"/>
  <rect x="680" y="16" width="100" height="28" rx="14" fill="#db2777" opacity="0.2"/>
  <!-- POS products panel -->
  <rect x="200" y="80" width="580" height="300" rx="12" fill="#fff" stroke="#e5e7eb" stroke-width="1"/>
  <rect x="220" y="100" width="160" height="120" rx="8" fill="#db2777" opacity="0.06"/>
  <rect x="220" y="230" width="120" height="8" rx="4" fill="#1a1a2e" opacity="0.1"/>
  <rect x="220" y="248" width="80" height="8" rx="4" fill="#1a1a2e" opacity="0.07"/>
  <rect x="220" y="268" width="60" height="24" rx="6" fill="#db2777" opacity="0.2"/>

  <rect x="400" y="100" width="160" height="120" rx="8" fill="#db2777" opacity="0.06"/>
  <rect x="400" y="230" width="120" height="8" rx="4" fill="#1a1a2e" opacity="0.1"/>
  <rect x="400" y="248" width="80" height="8" rx="4" fill="#1a1a2e" opacity="0.07"/>
  <rect x="400" y="268" width="60" height="24" rx="6" fill="#db2777" opacity="0.2"/>

  <rect x="580" y="100" width="160" height="120" rx="8" fill="#db2777" opacity="0.06"/>
  <rect x="580" y="230" width="120" height="8" rx="4" fill="#1a1a2e" opacity="0.1"/>
  <rect x="580" y="248" width="80" height="8" rx="4" fill="#1a1a2e" opacity="0.07"/>
  <rect x="580" y="268" width="60" height="24" rx="6" fill="#db2777" opacity="0.2"/>
  <!-- Cart sidebar -->
  <rect x="200" y="400" width="340" height="180" rx="12" fill="#fff" stroke="#e5e7eb" stroke-width="1"/>
  <rect x="220" y="420" width="300" height="10" rx="4" fill="#1a1a2e" opacity="0.08"/>
  <rect x="220" y="445" width="300" height="10" rx="4" fill="#1a1a2e" opacity="0.08"/>
  <rect x="220" y="470" width="300" height="10" rx="4" fill="#1a1a2e" opacity="0.08"/>
  <rect x="220" y="510" width="300" height="40" rx="8" fill="#db2777" opacity="0.2"/>
  <!-- Payment panel -->
  <rect x="560" y="400" width="220" height="180" rx="12" fill="#fff" stroke="#e5e7eb" stroke-width="1"/>
  <rect x="580" y="420" width="180" height="45" rx="8" fill="#1a1a2e" opacity="0.05"/>
  <rect x="580" y="478" width="180" height="45" rx="8" fill="#1a1a2e" opacity="0.05"/>
  <rect x="580" y="536" width="180" height="28" rx="8" fill="#db2777" opacity="0.2"/>
  <text x="480" y="560" text-anchor="middle" fill="#db2777" font-size="32" font-family="system-ui" opacity="0.3">POS Preview</text>
</svg>
